<?xml version="1.0" encoding="UTF-8"?>
<svg width="1200pt" height="1200pt" version="1.1" viewBox="0 0 1200 1200" xmlns="http://www.w3.org/2000/svg">
 <path d="m494.9 572.35s-51.637-21.324-87.562 39.289c0 0-28.055-11.23-43.777 19.066 0 0-50.508 3.3711-61.738 60.625 0 0-12.348 30.312-23.578 40.402 0 0-5.6172 50.52 52.754 118.99 0 0 71.844 124.61 104.4 147.06 0 0 59.496 67.344 61.738 85.297 0 0 37.043 39.289 92.039 51.648 0 0 94.285 22.441 118.99-28.066 0 0 59.496-74.09 78.574-138.07 0 0 60.625-135.83 62.867-141.43 0 0 28.066-50.52-10.117-113.38 0 0-79.691 37.043-120.11-17.965 0 0-42.66-16.824-51.637-35.914 0 0-41.531-24.695-70.727-16.836 0 0-22.453-24.695-41.531-25.812l-2.2578-15.719c0.03125-0.003906-43.734 7.8555-58.328-29.188z" fill="#87b9ed" stroke="#227ad6" stroke-width="5"/>
 <path d="m841.75 703.69s32.555-51.637 5.6172-89.809c0 0 1.1289-34.789-31.43-51.637 0 0-13.477-37.031-34.789-30.301 0 0-17.965 0-15.719 22.441 0 0-20.219 4.5-20.219 15.719 0 0-37.043 12.348-32.543 44.902 0 0-35.93 30.312 7.8477 61.754 0 0 4.4883 28.066 49.379 42.66 0.007812-0.023437 50.543 2.2344 71.855-15.73z" fill="#87b9ed" stroke="#227ad6" stroke-width="5"/>
 <path d="m278.26 704.81s-23.566-8.9883-15.719-50.52c0 0-47.148-184.09 81.949-255.94 0 0 47.148-65.102 70.715-46.02 0 0 25.824 11.219 7.8711 59.496 0 0 38.16 37.043 22.453 65.113 0 0 16.836 22.441-2.2578 37.043 0 0 11.23 28.055-13.465 42.66 0 0-28.066 19.078-26.941 42.66 0 0-34.801-4.5-43.777 20.207 0 0-60.613 10.105-63.984 63.973-0.007812-0.011719-4.4961 23.566-16.844 21.324z" fill="#87b9ed" stroke="#227ad6" stroke-width="5"/>
 <path d="m347.84 382.64s36.492-46.02 61.738-39.852c0 0 28.621 3.9258 25.262 49.391l-5.6172 19.094 8.4258 9.5391s14.594-73.523 35.93-70.727c0 0 44.328-47.148 32.543-126.29 0 0-51.07 1.6914-121.23 78.023 0.007813 0-38.164 46.02-37.047 80.82z" fill="#87b9ed" stroke="#227ad6" stroke-width="5"/>
 <path d="m855.23 614.45s23.578-70.727 6.7422-113.94c0 0 20.207-29.195 35.363 0 0 0 12.348 16.836 21.312 2.8086l14.039 12.336s19.078 3.3711 21.324-12.898l-23.566-38.734 33.109-1.1289s12.348-22.441 0.5625-37.598l-30.301-4.4883 16.824-14.594s1.7031-21.887-13.465-20.762l-21.887 30.863-145.92 28.633s-33.121-3.3711-42.098 44.34c0 0-14.594 67.344-53.891 120.11 0 0 14.605 37.043 11.785 51.07 0 0-9.5391 10.668 29.195 28.055l0.5625-7.2852s-28.633-21.887-21.324-46.586c0 0 5.6172-18.516 12.348-20.762 0 0-5.0508-30.312 33.684-48.828 0 0 7.8477-15.719 19.066-16.285 0 0 5.0508-25.262 21.336-24.695 0 0 25.246-6.7305 40.969 34.801-0.003906 0.007813 29.18 10.664 34.23 55.57z" fill="#87b9ed" stroke="#227ad6" stroke-width="5"/>
 <path d="m924.82 328.77s-88.668-5.6172-152.66 20.207c0 0-53.879 42.66-118.98 30.312 0 0-39.289 0.83984-49.391-7.0195 0 0-33.395 18.238-38.734 55.285 0 0 46.586-8.9883 49.945 29.184 0 0-1.1172 53.879-48.254 68.473 0 0-43.777 7.8477-65.113 37.031 0 0 7.8594 39.289 55.008 31.43 0 0 15.707-43.766 57.254-44.891 0 0-49.391 21.324-50.508 61.727 0 0 23.566 11.23 37.043 24.707 0 0 35.914-3.3711 77.461 22.441 0 0 0-29.184-13.477-48.266 0 0 50.52-72.973 56.137-124.61 0 0 8.9766-52.754 48.266-46.02l143.69-28.055c-0.015625 0.007813 21.309-46.012 12.32-81.938zm-6.2266 42.395c-2.9297 19.777-7.9219 35.426-11.148 34.945-3.2266-0.48047-3.457-16.895-0.51562-36.672 2.9414-19.777 7.9336-35.426 11.16-34.934 3.2148 0.46875 3.4297 16.883 0.50391 36.66z" fill="#87b9ed" stroke="#227ad6" stroke-width="5"/>
 <path d="m461.23 232.22s29.746-18.516 49.379-13.465c0 0 17.965 61.738-28.055 135.82 0 0 38.172-51.625 61.754-65.102 0 0-19.078-93.18-50.52-145.93-31.43-52.754-20.195-77.461-20.195-77.461s-30.312-12.348-43.777 12.348l25.812 79.703s-66.238-66.238-134.71-29.184c0 0-14.594 26.941 15.719 39.289 0 0 22.453-28.066 78.574 10.105-0.011719 0.003906 37.031 26.945 46.02 53.883zm-8.0508-153.96c-9.5273 2.3281-17.879 1.6445-18.648-1.5117-0.76953-3.168 6.3125-7.6094 15.84-9.9375 9.5273-2.3164 17.867-1.6445 18.648 1.5234 0.78125 3.168-6.3242 7.6094-15.84 9.9258z" fill="#87b9ed" stroke="#227ad6" stroke-width="5"/>
 <path d="m810.32 153.65s-56.125-49.391-112.25-21.324c0 0-72.961 30.312-88.68 124.6l-10.105 10.105s26.941-167.4 39.289-180.73c0 0-16.836-23.578-47.148-8.9883 0 0-34.801 81.949-37.043 203.18l0.5625 10.656s-33.121 22.453-69.602 70.715l-10.668-3.3594s-20.762-0.55078-30.875 70.715c0 0 19.656 20.207 10.105 47.711 0 0 12.348 20.207-2.8086 41.531 0 0 5.0508 25.246-9.5391 40.414 0 0-25.262 10.105-30.863 34.234 0 0 33.109-42.098 80.809-30.312 0 0 22.465-33.672 67.355-47.711 0 0-32.555-113.38 53.879-156.02 0 0 62.855-22.453 97.668 13.477 0 0 57.254-21.324 62.855-35.914 0 0-14.605-58.379-112.25-79.703 0 0 12.336-123.48 130.22-75.203 0.011718-0.003906 24.695-7.8633 19.078-28.07zm-213.36-74.582c0.45703-3.2266 8.6875-4.7383 18.395-3.3828 9.7188 1.3555 17.219 5.0742 16.754 8.293-0.43359 3.2266-8.6758 4.7383-18.383 3.3828-9.7109-1.3555-17.223-5.0625-16.766-8.293zm205.28 91.07c-5.3867 5.1602-11.578 7.4531-13.836 5.1016-2.2578-2.3516 0.28906-8.4492 5.6875-13.609 5.3867-5.1719 11.578-7.4531 13.824-5.1016 2.2578 2.3516-0.28516 8.4492-5.6758 13.609z" fill="#87b9ed" stroke="#227ad6" stroke-width="5"/>
</svg>


