<?xml version="1.0" encoding="UTF-8"?>
<svg width="1200pt" height="1200pt" version="1.1" viewBox="0 0 1200 1200" xmlns="http://www.w3.org/2000/svg">
 <path d="m366.1 526.18c-77.625-0.89062-141.74-61.031-147.61-138.47l-4.4062-46.453c-0.46875-4.9688 1.0312-9.8906 4.2188-13.734 3.1875-3.7969 7.7344-6.2344 12.703-6.7031 10.312-0.98438 19.453 6.6094 20.438 16.922l4.4062 46.406-0.046875-0.046875c4.1719 58.172 52.031 103.5 110.3 104.53 58.359-0.9375 106.31-46.312 110.48-104.53l4.4062-46.406c0.98438-10.312 10.125-17.859 20.438-16.875s17.906 10.125 16.922 20.438l-4.4062 46.406c-5.9062 77.531-70.078 137.68-147.84 138.52z" fill="#662fc1"/>
 <path d="m366.19 466.87c-14.906-0.23438-29.438-4.7812-41.812-13.125-8.7188-5.5781-11.25-17.203-5.6719-25.922 5.625-8.7188 17.203-11.25 25.922-5.625 12.797 9.5625 30.328 9.5625 43.125 0 8.7188-5.625 20.297-3.0938 25.922 5.625 5.5781 8.7188 3.0469 20.344-5.6719 25.922-12.375 8.3438-26.906 12.891-41.812 13.125z" fill="#662fc1"/>
 <path d="m231.89 445.74c-30.141-0.46875-57.094-18.703-68.766-46.5-12.984-29.531-6.5625-63.984 16.172-86.859 3.5156-3.6562 8.3438-5.7188 13.453-5.7188 5.0625 0 9.8906 2.0156 13.453 5.6719 3.5156 3.6094 5.4375 8.5312 5.2969 13.594s-2.3438 9.8438-6.0469 13.266c-11.672 12-14.812 29.906-7.9219 45.188 6.75 17.391 25.406 27 43.5 22.5 9.8438-2.8125 20.109 2.8125 23.062 12.609s-2.4844 20.156-12.281 23.297c-6.4688 1.9219-13.172 2.9531-19.922 2.9531z" fill="#662fc1"/>
 <path d="m500.48 445.74c-6.7969 0-13.5-0.98438-20.016-2.9531-4.875-1.3125-9.0469-4.5469-11.484-9-2.4844-4.4062-3.0469-9.6562-1.5938-14.484 1.4531-4.875 4.8281-8.9062 9.3281-11.25 4.4531-2.3438 9.7031-2.7656 14.531-1.1719 18.094 4.5469 36.75-5.1094 43.547-22.5 6.7031-15.328 3.5156-33.188-8.0625-45.188-3.6562-3.5156-5.7188-8.2969-5.7656-13.312-0.09375-5.0156 1.875-9.8906 5.4375-13.453 3.5156-3.5625 8.3438-5.5781 13.359-5.5312 5.0625 0 9.8438 2.0625 13.359 5.6719 22.453 22.922 28.781 57.141 16.125 86.625-11.672 27.75-38.672 46.031-68.766 46.547z" fill="#662fc1"/>
 <path d="m541.55 146.9c-36.844-45.047-102.42-71.906-175.4-71.906h-0.14062c-72.938 0-138.42 26.906-175.13 71.906-68.812 84-17.812 183.56-15.562 187.78l-0.046875-0.046876c4.125 7.6875 12.984 11.578 21.422 9.375l0.5625-0.14062c8.1094-2.3906 16.828 0.89062 21.375 8.0156 3.9375 4.5 9.7969 6.8906 15.75 6.3281 49.594-1.8281 96.703-22.359 131.76-57.469 35.156 35.109 82.266 55.641 131.9 57.469h1.5938c5.4844 0 10.734-2.4375 14.297-6.6094 8.8594-10.359 15.328-9.5625 20.625-7.9688 0.375 0 0.75 0.1875 1.125 0.28125l-0.046876 0.046876c8.4375 2.1094 17.25-1.7344 21.375-9.375 2.2969-4.125 53.344-103.73-15.469-187.69z" fill="#662fc1"/>
 <path d="m422.63 555.74c-10.359 0-18.75-8.3906-18.75-18.75v-42.938c0-10.359 8.3906-18.75 18.75-18.75h0.1875c4.9688 0 9.75 2.0156 13.266 5.5312 3.5156 3.5156 5.4844 8.25 5.4844 13.219v42.938c0 5.0156-2.0156 9.7969-5.5781 13.312-3.5625 3.5156-8.3438 5.4844-13.359 5.4375z" fill="#662fc1"/>
 <path d="m638.44 881.44c-10.359 0-18.75-8.3906-18.75-18.75 0-94.875-17.109-126-34.594-149.76-6.4688-9.5625-14.344-18.094-23.391-25.266-12-9.5156-24.609-18.234-37.734-26.109-8.8125-5.4844-11.531-17.016-6.0469-25.875 5.4375-8.8125 17.016-11.531 25.828-6.0469 14.484 8.7188 28.406 18.375 41.672 28.922 11.766 9.3281 22.031 20.438 30.469 32.859 25.359 34.359 41.391 75.375 41.391 171.28 0 4.9688-1.9688 9.75-5.5312 13.312-3.5156 3.5156-8.3438 5.4844-13.312 5.4375z" fill="#662fc1"/>
 <path d="m785.95 477.28c-24.422-12.328-43.5-33.141-53.672-58.547-3.4219-8.3906-12.328-13.125-21.188-11.25-13.734 2.3906-27.75-2.0156-37.641-11.766-5.3438-5.3438-13.406-6.9375-20.391-4.0781s-11.578 9.6562-11.625 17.203c-0.375 38.625-3.9844 171.42-33.328 259.18-2.3906 7.1719-0.28125 15.047 5.3906 20.062 5.6719 4.9688 13.781 6.0469 20.578 2.7656 1.4531-0.75 2.8594-1.6875 4.125-2.7188l0.46875-0.375c11.484-9.1875 23.531-17.578 36.094-25.219 4.7812-2.9531 7.9688-7.9219 8.7188-13.5 2.4375-19.172 10.219-37.312 22.5-52.219 19.969-22.547 46.641-38.109 76.078-44.344 8.3906-2.0625 14.25-9.5625 14.25-18.188v-40.219c0-7.0781-4.0312-13.594-10.359-16.781z" fill="#662fc1"/>
 <path d="m833.86 526.22c-22.547 0.046875-44.766-5.25-64.828-15.516-4.4531-2.25-7.8281-6.1875-9.375-10.922s-1.125-9.8438 1.125-14.297 6.1875-7.7812 10.922-9.3281 9.8906-1.125 14.344 1.125c30.094 15.141 65.531 15.141 95.625 0 9.4219-4.3125 20.531-0.14062 24.844 9.2812s0.1875 20.531-9.2344 24.844c-19.734 9.7969-41.438 14.859-63.422 14.812z" fill="#662fc1"/>
 <path d="m714.89 444.56c-7.5469 0-14.344-4.5-17.297-11.438-6.0469-14.438-9.8438-29.719-11.344-45.328l-4.4531-46.453c-0.98438-10.312 6.5625-19.453 16.875-20.438s19.5 6.5625 20.484 16.875l4.4062 46.359c1.125 11.812 4.0312 23.391 8.5781 34.359 2.4375 5.7656 1.8281 12.422-1.6406 17.672s-9.3281 8.3906-15.609 8.3906z" fill="#662fc1"/>
 <path d="m953.63 443.63c-2.3906 0-4.7812-0.46875-6.9844-1.4062-9.6094-3.8438-14.25-14.766-10.406-24.375 4.3125-10.734 7.0312-22.078 8.0625-33.609l4.4531-46.453c0.98438-10.312 10.125-17.859 20.438-16.875s17.859 10.172 16.875 20.484l-4.4531 46.359h0.046875c-1.4062 15.141-4.9688 30-10.594 44.156-2.9062 7.0781-9.7969 11.719-17.438 11.719z" fill="#662fc1"/>
 <path d="m833.9 466.87c-14.906-0.23438-29.438-4.7812-41.812-13.125-8.7188-5.5781-11.25-17.203-5.625-25.922 5.5781-8.7188 17.203-11.25 25.875-5.625 12.797 9.5625 30.375 9.5625 43.125 0 4.2188-2.8125 9.3281-3.7969 14.25-2.7656s9.2344 4.0312 11.953 8.25 3.6094 9.375 2.4844 14.25c-1.125 4.9219-4.125 9.1875-8.4375 11.812-12.375 8.3438-26.906 12.891-41.812 13.125z" fill="#662fc1"/>
 <path d="m660.14 427.64c-4.7812 0-9.375-1.8281-12.844-5.0625-6.9375-6.5625-12.516-14.484-16.359-23.25-13.125-29.531-6.7031-64.078 16.125-86.953 3.5156-3.7969 8.3906-5.9531 13.547-6.0469 5.1562-0.046875 10.078 2.0156 13.688 5.7188 3.5625 3.7031 5.4844 8.7188 5.25 13.828-0.23438 5.1562-2.5312 9.9844-6.4219 13.359-11.672 12-14.812 29.906-7.875 45.094 1.7812 4.0781 4.4062 7.7812 7.6406 10.875 5.625 5.25 7.4531 13.406 4.5938 20.578-2.8125 7.125-9.7031 11.859-17.391 11.859z" fill="#662fc1"/>
 <path d="m1007.8 428.44c-7.5938 0-14.391-4.5-17.344-11.484-2.9531-6.9375-1.4062-15 3.8906-20.391 3.4688-3.6094 6.2812-7.8281 8.3438-12.422 6.5156-15.328 3.2812-33.094-8.25-45.094-3.7031-3.4688-5.8594-8.2969-5.9531-13.359-0.14062-5.0625 1.8281-9.9844 5.3906-13.594 3.6094-3.5625 8.4844-5.5781 13.547-5.5312s9.8906 2.1562 13.406 5.8594c30.188 30.469 30.375 79.5 0.42188 110.2-3.5156 3.6562-8.3906 5.7656-13.453 5.8125z" fill="#662fc1"/>
 <path d="m1009.3 146.9c-36.844-45.047-102.42-71.906-175.4-71.906h-0.14062c-72.938 0-138.42 26.906-175.13 71.906-68.812 84-17.812 183.56-15.562 187.78v-0.046876c4.125 7.6875 12.984 11.531 21.422 9.375l0.51562-0.14062c8.1094-2.3906 16.828 0.89062 21.375 8.0156 2.1562 2.3906 4.875 4.2188 7.875 5.2969 15.516 5.3438 31.781 8.0156 48.141 7.875 58.547-0.42188 113.81-27.141 150.52-72.75 26.719 8.7188 48 29.203 57.75 55.594 2.8125 5.625 8.25 9.4688 14.484 10.219s12.469-1.6875 16.547-6.4688c8.8594-10.359 15.328-9.5625 20.625-7.9688 0.375 0 0.75 0.1875 1.125 0.28125l-0.046875 0.046874c8.4375 2.1094 17.25-1.7344 21.422-9.375 2.25-4.1719 53.344-103.78-15.516-187.74z" fill="#662fc1"/>
 <path d="m600.19 720.56c-6.8906 0-13.219-3.7969-16.5-9.7969-3.2344-6.0469-2.9531-13.406 0.79688-19.172 8.0156-12.188 17.906-23.016 29.297-32.062 8.2969-6.2344 20.062-4.5469 26.25 3.75 6.2344 8.25 4.5469 20.016-3.75 26.25-7.875 6.4219-14.719 14.016-20.344 22.5-3.4688 5.3438-9.4219 8.5312-15.75 8.5312z" fill="#662fc1"/>
 <path d="m890.34 512.76h-0.14062c-10.359-0.046875-18.703-8.4375-18.703-18.797 0.046875-10.359 8.4375-18.703 18.75-18.703 10.359 0 18.75 8.3438 18.75 18.703 0.046875 10.359-8.2969 18.75-18.656 18.797z" fill="#662fc1"/>
 <path d="m1058.9 667.03c-31.688-91.875-32.531-230.39-32.344-257.21v-0.046875c0.046875-7.6406-4.5938-14.578-11.672-17.484-7.125-2.9062-15.281-1.1719-20.578 4.3594-8.9062 9.7969-22.547 13.734-35.297 10.266-9.2812-2.7656-19.125 1.9219-22.734 10.875-10.219 25.734-29.484 46.922-54.188 59.484-6.4219 3.1406-10.453 9.7031-10.406 16.875v40.125c0 8.5781 5.8594 16.078 14.203 18.188 29.438 6.1875 56.062 21.75 75.938 44.344 12.375 14.859 20.203 33 22.5 52.172 0.75 5.5781 3.9375 10.547 8.6719 13.5 12.656 7.6406 24.797 16.031 36.375 25.172 6.4688 5.2969 15.703 5.625 22.594 0.84375 6.8438-4.7812 9.7031-13.547 6.9844-21.469z" fill="#662fc1"/>
 <path d="m309.74 555.74c-10.359 0-18.75-8.3906-18.75-18.75v-42.938c0-10.359 8.3906-18.75 18.75-18.75 10.359 0 18.75 8.3906 18.75 18.75v42.938c0 10.359-8.3906 18.75-18.75 18.75z" fill="#662fc1"/>
 <path d="m93.75 1125c-10.359 0-18.75-8.3906-18.75-18.75v-243.56c0-137.26 32.859-173.81 72.562-204.37 13.125-10.031 26.812-19.312 40.969-27.891 4.2188-2.8594 9.4688-3.8906 14.438-2.8125 5.0156 1.0312 9.375 4.125 12.047 8.4844 2.6719 4.3125 3.4688 9.6094 2.2031 14.531-1.2656 4.9688-4.5469 9.1875-9 11.672-13.031 7.875-25.641 16.453-37.734 25.688-28.547 21.984-57.984 44.672-57.984 174.71v243.56c0 4.9688-1.9688 9.75-5.4844 13.266-3.5156 3.5156-8.2969 5.4844-13.266 5.4844z" fill="#662fc1"/>
 <path d="m638.39 965.63c-10.359 0-18.75-8.3906-18.75-18.75v-84.234c0-10.359 8.3906-18.75 18.75-18.75s18.75 8.3906 18.75 18.75v84.234c0 4.9688-1.9688 9.75-5.4844 13.266s-8.2969 5.4844-13.266 5.4844z" fill="#662fc1"/>
 <path d="m1106.3 1125c-10.359 0-18.75-8.3906-18.75-18.75v-243.61c0-127.5-24.375-147.42-58.125-174.84v-0.046875c-8.0156-6.5156-9.2344-18.328-2.7188-26.344 6.5156-8.0625 18.328-9.2812 26.391-2.7188 44.766 36.422 71.953 68.297 71.953 203.95v243.61c0 4.9688-1.9688 9.75-5.4844 13.266-3.5156 3.5156-8.2969 5.4844-13.266 5.4844z" fill="#662fc1"/>
 <path d="m366.1 912.71c-16.781 0-33.422-3.3281-48.984-9.7031-11.672-4.7812-22.594-11.203-32.391-19.125-3.8906-3.0938-6.4219-7.6406-6.9375-12.609-0.5625-4.9688 0.89062-9.9375 3.9844-13.828 3.1406-3.8906 7.6875-6.375 12.656-6.8906s9.9375 0.98438 13.828 4.125c6.9844 5.625 14.719 10.219 23.062 13.641 22.359 9.1875 47.438 9.1875 69.797 0 8.2969-3.4688 16.125-8.0625 23.156-13.688 3.8906-3.0469 8.8594-4.5 13.828-3.8906 4.9219 0.5625 9.4219 3.0469 12.516 6.9844 6.4219 8.1094 5.0625 19.875-3.0469 26.344-9.7969 7.7812-20.625 14.156-32.203 18.938-15.609 6.4219-32.344 9.7031-49.266 9.7031z" fill="#662fc1"/>
 <path d="m273.24 863.02c-6.1875 0-12-3.0469-15.516-8.2031-13.359-19.641-21.516-42.375-23.719-66l-3.8906-40.828h-0.046875c-0.9375-10.312 6.6094-19.5 16.922-20.438 10.312-0.98438 19.453 6.5625 20.438 16.875l3.8906 40.828c1.6406 17.391 7.5938 34.031 17.391 48.469 3.9375 5.7188 4.3594 13.172 1.0781 19.312-3.2344 6.1406-9.6094 9.9844-16.547 9.9844z" fill="#662fc1"/>
 <path d="m459.14 863.02c-6.9375 0-13.312-3.8438-16.547-10.031-3.2344-6.1406-2.8125-13.547 1.125-19.312 9.75-14.391 15.75-31.078 17.344-48.422l3.9375-40.875c1.0312-10.266 10.172-17.719 20.438-16.781 10.266 0.98438 17.812 10.078 16.875 20.344l-3.8906 40.875 0.046875-0.046875c-2.25 23.672-10.453 46.406-23.812 66.047-3.5156 5.1562-9.3281 8.2031-15.516 8.2031z" fill="#662fc1"/>
 <path d="m366.19 859.45c-11.109-0.1875-21.891-3.6562-31.031-10.031-4.125-2.7188-7.0312-7.0312-8.0156-11.906-0.98438-4.9219 0-9.9844 2.7656-14.156 2.7656-4.125 7.0781-7.0312 12-7.9688 4.875-0.98438 9.9844 0.046875 14.109 2.8594 5.8594 4.9688 14.484 4.9688 20.344 0 8.5781-5.2031 19.734-2.7656 25.312 5.5781s3.6094 19.594-4.4531 25.547c-9.0938 6.375-19.922 9.8906-31.031 10.078z" fill="#662fc1"/>
 <path d="m248.06 841.87c-27.328-0.46875-51.844-17.016-62.438-42.234-11.812-26.859-5.9531-58.172 14.719-78.938 3.5625-3.6562 8.3906-5.7188 13.453-5.7188s9.9375 2.0625 13.453 5.6719c3.5625 3.6094 5.4844 8.5312 5.3438 13.594s-2.3438 9.8438-6.0938 13.312c-9.5625 9.8906-12.141 24.656-6.4688 37.219 5.5312 14.25 20.812 22.219 35.625 18.516 4.8281-1.5 9.9844-1.0312 14.438 1.3125s7.7812 6.375 9.2344 11.156c1.4531 4.8281 0.89062 10.031-1.5469 14.438-2.3906 4.4062-6.4688 7.6406-11.297 9-6 1.7812-12.188 2.6719-18.422 2.6719z" fill="#662fc1"/>
 <path d="m484.36 841.87c-6.1875 0-12.281-0.89062-18.234-2.6719-4.8281-1.3594-8.9062-4.6406-11.297-9.0469-2.4375-4.4062-2.9531-9.6094-1.5469-14.391 1.4531-4.8281 4.7812-8.8594 9.2344-11.203s9.6562-2.8125 14.438-1.2656c14.859 3.6562 30.141-4.3125 35.625-18.609 5.5312-12.609 2.9062-27.328-6.6094-37.266-7.3594-7.3125-7.4531-19.172-0.14062-26.531s19.172-7.4062 26.531-0.14062c20.391 20.859 26.203 51.984 14.672 78.75-10.641 25.312-35.203 41.953-62.672 42.375z" fill="#662fc1"/>
 <path d="m483.61 765h-1.5938c-43.406-1.6875-84.656-19.312-115.88-49.5-31.125 30.234-72.375 47.859-115.73 49.5-5.9531 0.5625-11.812-1.7812-15.75-6.3281-3.4219-5.625-10.219-8.2031-16.547-6.3281l-0.28125 0.09375c-8.4844 2.25-17.438-1.6406-21.609-9.375-1.9688-3.75-47.531-92.625 13.969-167.68v-0.046875c40.031-43.172 96.984-66.609 155.81-64.031h0.14062c58.922-2.5781 115.97 20.859 156.1 64.078 61.453 75 15.938 163.92 13.969 167.68h-0.046875c-4.125 7.7344-13.078 11.625-21.562 9.375l-0.84375-0.23438c-4.2188-1.3125-8.9531-1.875-15.891 6.3281-3.5625 4.125-8.7656 6.5156-14.25 6.4688zm-259.08-50.906c11.531 0.51562 22.5 4.9219 31.078 12.562 37.781-2.0156 72.703-20.906 95.062-51.469 3.4688-5.0625 9.2812-8.1094 15.422-8.1562 6.1875 0 11.953 3.0469 15.469 8.1562 22.406 30.516 57.281 49.406 95.109 51.469 8.625-7.7344 19.641-12.234 31.219-12.75 15.891-38.156 10.266-81.938-14.766-114.84-33-34.5-79.406-52.875-127.03-50.344h-0.14062c-47.578-2.5312-93.891 15.844-126.84 50.297-25.031 33.047-30.562 76.875-14.578 115.08z" fill="#662fc1"/>
 <path d="m534.14 998.68c-17.719-14.812-38.297-25.875-60.422-32.438-5.1562-1.875-10.359-3.9375-15.375-6-4.6875-1.875-9.9844-1.8281-14.625 0.23438-49.125 23.062-105.94 23.062-155.06 0-4.6406-2.0156-9.9375-2.1094-14.672-0.1875-5.8125 2.3906-11.672 4.5-17.531 6.5625-21.703 5.9531-41.625 16.969-58.266 32.062-23.719 30-38.625 66-43.031 103.97-0.98438 5.4844 0.51562 11.109 4.0781 15.375s8.8125 6.75 14.391 6.75h385.31c5.5781 0 10.828-2.4844 14.391-6.75s5.0625-9.8906 4.0781-15.375c-8.9062-48.797-23.391-83.812-43.266-104.2z" fill="#662fc1"/>
 <path d="m409.4 956.44c-8.2969 0-15.562-5.4375-17.953-13.312-1.2656-4.2188-1.875-8.5781-1.875-12.938v-44.672c0-10.359 8.3906-18.75 18.75-18.75h0.09375c4.9688 0 9.75 1.9688 13.266 5.4844s5.4844 8.2969 5.4844 13.266v44.672c0 0.70312 0.14062 1.3594 0.32812 2.0156 3 9.9375-2.5781 20.391-12.516 23.391-1.8281 0.5625-3.7031 0.84375-5.5781 0.84375z" fill="#662fc1"/>
 <path d="m322.97 956.44c-6.0469 0-11.766-2.9531-15.281-7.9219s-4.4062-11.297-2.3906-17.062c0.14062-0.42188 0.1875-0.84375 0.1875-1.2656v-44.531c-0.046875-4.9688 1.9219-9.75 5.4375-13.312 3.4688-3.5156 8.25-5.5312 13.219-5.5312 10.359-0.09375 18.797 8.2969 18.844 18.656v44.719c0 4.6406-0.79688 9.2812-2.2969 13.688-2.625 7.5-9.75 12.562-17.719 12.562z" fill="#662fc1"/>
 <path d="m228.32 965.63c-13.125-0.09375-25.734-5.4375-34.922-14.812-19.266-18.75-26.812-52.172 9.75-90 18.469-16.641 40.734-28.5 64.828-34.594 7.7344-2.2031 16.031 0.75 20.625 7.4062 5.3906 7.875 11.953 14.953 19.453 20.906 5.8594 4.6875 8.3906 12.422 6.4219 19.688-5.5781 23.297-16.547 45-32.062 63.281-12.094 14.109-28.5 23.812-46.641 27.609-2.4844 0.375-4.9688 0.51562-7.4531 0.51562zm38.109-99.375c-13.453 4.2188-25.875 11.25-36.375 20.625-15.609 16.125-19.125 28.594-10.5 36.938 2.625 3.1406 6.75 4.6875 10.781 4.125 9.9375-2.7188 18.75-8.5312 25.125-16.594 8.9531-10.547 15.609-22.828 19.547-36.047-3-2.8594-5.8594-5.9062-8.5781-9.0469z" fill="#662fc1"/>
 <path d="m504.05 965.63c-2.4844 0-5.0156-0.1875-7.5-0.5625-18.094-3.7969-34.5-13.5-46.547-27.562-15.562-18.234-26.578-39.938-32.156-63.281-1.9688-7.2188 0.51562-14.906 6.3281-19.594 7.5-6 14.062-13.078 19.547-20.953 4.5469-6.6562 12.844-9.6094 20.625-7.4062 24.047 6.0938 46.312 17.953 64.781 34.547 36.562 37.828 29.016 71.25 9.75 90-9.1875 9.375-21.703 14.672-34.828 14.812zm-46.688-90.328c3.9375 13.266 10.641 25.594 19.594 36.141 6.375 8.0156 15.188 13.828 25.078 16.547 4.0781 0.60938 8.1562-0.9375 10.828-4.0781 8.625-8.3438 5.0625-20.812-10.547-36.984v-0.046875c-10.547-9.375-22.922-16.406-36.375-20.625-2.7188 3.1406-5.5781 6.1406-8.5781 9.0469z" fill="#662fc1"/>
 <path d="m1001.8 998.76c-17.766-15-38.484-26.109-60.75-32.719-5.1094-1.875-10.172-3.8438-15.094-5.8125h-0.046875c-4.6875-1.875-9.9375-1.7812-14.578 0.23438-49.031 23.109-105.84 23.109-154.87 0-4.6406-2.0156-9.9375-2.1094-14.625-0.23438-5.7188 2.3438-11.578 4.4062-17.344 6.4688v0.046875c-21.75 5.9531-41.766 16.922-58.406 32.062-19.875 20.391-34.406 55.406-43.266 104.06h-0.046875c-0.98438 5.4844 0.51562 11.109 4.0781 15.375s8.8125 6.75 14.391 6.75h385.31c5.5781 0 10.828-2.4844 14.391-6.75s5.0625-9.8906 4.0781-15.375c-8.9531-49.125-23.484-84.188-43.219-104.11z" fill="#662fc1"/>
 <path d="m833.9 912.1c-69.891-0.75-127.55-54.797-132.84-124.5l-3.8906-41.062h-0.046875c-0.89062-10.266 6.6562-19.312 16.922-20.297s19.359 6.5156 20.438 16.734l3.8906 41.062v0.046875c1.7812 51.516 44.016 92.344 95.578 92.344 51.516 0 93.797-40.828 95.578-92.344l3.8906-41.062v-0.046875c0.42188-4.9688 2.8125-9.5625 6.6562-12.75s8.8125-4.7344 13.781-4.2656 9.5625 2.9062 12.703 6.7969c3.1875 3.8438 4.6875 8.8125 4.1719 13.781l-3.8906 41.062c-5.3438 69.703-63.047 123.74-132.94 124.5z" fill="#662fc1"/>
 <path d="m833.95 858.74c-12.094-0.14063-23.906-3.5156-34.219-9.75-8.9531-5.25-11.953-16.734-6.75-25.688 5.2031-8.9531 16.688-11.953 25.641-6.75 9.2344 6.2812 21.375 6.2812 30.656 0 4.2656-2.625 9.4688-3.4219 14.344-2.2031 4.9219 1.2656 9.0938 4.4062 11.625 8.7656 2.5312 4.3594 3.2344 9.5625 1.875 14.438-1.3594 4.8281-4.5938 8.9531-9 11.391-10.312 6.2812-22.125 9.6562-34.172 9.7969z" fill="#662fc1"/>
 <path d="m715.13 840.94c-27.516-0.46875-52.172-17.109-62.812-42.469-11.859-26.953-6-58.453 14.812-79.312 7.4062-7.0781 19.172-6.8438 26.344 0.51562s7.0781 19.125-0.1875 26.344c-9.6562 9.9844-12.281 24.844-6.5625 37.5 5.5312 14.391 20.953 22.453 35.906 18.75 4.8281-1.5469 10.031-1.125 14.531 1.2188 4.4531 2.3438 7.7812 6.375 9.2344 11.25 1.4531 4.8281 0.89062 10.031-1.5469 14.438s-6.5625 7.6875-11.438 9c-5.9062 1.8281-12.094 2.7188-18.281 2.7656z" fill="#662fc1"/>
 <path d="m952.82 840.89c-6.1875 0-12.375-0.89062-18.281-2.6719-4.875-1.3594-9-4.5938-11.438-9s-3-9.6562-1.5469-14.484 4.7812-8.8594 9.2344-11.203c4.5-2.3438 9.7031-2.7656 14.531-1.2188 15 3.6562 30.375-4.3594 35.953-18.75 5.5781-12.75 2.9062-27.562-6.7031-37.594-7.3594-7.3125-7.4062-19.172-0.09375-26.531 7.2656-7.3594 19.125-7.4062 26.484-0.14062 20.484 20.953 26.297 52.172 14.766 79.078-10.641 25.406-35.344 42.094-62.906 42.516z" fill="#662fc1"/>
 <path d="m890.21 552.74c-1.5469 0-3.0469-0.1875-4.5469-0.5625-33.984-8.3906-69.469-8.3906-103.45 0-10.031 2.5312-20.25-3.5625-22.734-13.641-2.5312-10.031 3.5625-20.25 13.594-22.734 39.984-9.8438 81.703-9.8438 121.69 0 9.1875 2.2969 15.188 11.062 14.062 20.438-1.1719 9.4219-9.1406 16.453-18.609 16.5z" fill="#662fc1"/>
 <path d="m952.08 763.5c-31.406-1.6406-60-18.516-76.594-45.188-40.359 32.906-107.53 45.234-159.71 45.234v-0.046875c-5.3906 0-10.5-2.2969-14.062-6.375-3.5156-5.6719-10.359-8.2969-16.781-6.4219l-0.70312 0.1875h0.046875c-8.3906 2.1094-17.156-1.7812-21.234-9.375-14.766-30.562-20.531-64.688-16.641-98.438 0.65625-4.9219 3.2812-9.375 7.2188-12.375 3.9844-3 8.9531-4.3125 13.875-3.6562 10.266 1.4062 17.438 10.875 16.031 21.141-2.4844 21.75 0.1875 43.781 7.875 64.312 11.953 0.51562 23.297 5.25 32.062 13.359 65.625-1.5 123.56-22.5 142.4-52.031 4.1719-6.5625 11.953-9.8438 19.547-8.2969s13.5 7.6406 14.766 15.281c5.3438 22.125 22.688 39.281 44.812 44.531 8.6719-7.875 19.781-12.469 31.5-12.938 7.4062-20.062 10.172-41.484 8.0156-62.766-0.60937-4.9219 0.79688-9.8906 3.8438-13.828 3.0938-3.9375 7.5469-6.4688 12.516-7.0781 10.266-1.2188 19.641 6.0938 20.906 16.359 3.375 33.047-2.4844 66.422-16.875 96.328-4.125 7.6406-12.891 11.484-21.281 9.375-0.375 0-0.75-0.1875-1.125-0.28125-4.3125-1.3125-9.0938-1.875-16.078 6.375h-0.046874c-3.5625 4.2188-8.8125 6.6094-14.297 6.6094z" fill="#662fc1"/>
 <path d="m877.4 956.11c-8.2969 0-15.562-5.4375-17.953-13.312-1.2656-4.2188-1.875-8.5781-1.875-12.984v-45c0-10.359 8.3906-18.75 18.75-18.75h0.14062c4.9688 0 9.7031 1.9688 13.219 5.4844s5.5312 8.2969 5.5312 13.266v45c0 0.70312 0.09375 1.4062 0.28125 2.1094 3 9.8906-2.5781 20.344-12.516 23.344-1.7812 0.5625-3.7031 0.84375-5.5781 0.84375z" fill="#662fc1"/>
 <path d="m790.5 956.11c-6.0938 0-11.812-2.9062-15.328-7.875s-4.4062-11.297-2.3906-17.062c0.14062-0.42188 0.1875-0.89062 0.1875-1.3594v-44.812c-0.046875-10.359 8.2969-18.797 18.656-18.844 10.359-0.09375 18.797 8.25 18.844 18.609v45.047c0 4.6406-0.75 9.2812-2.2969 13.688-2.625 7.5469-9.7031 12.609-17.672 12.609z" fill="#662fc1"/>
</svg>
