<?xml version="1.0" encoding="UTF-8"?>
<svg width="1200pt" height="1200pt" version="1.1" viewBox="0 0 1200 1200" xmlns="http://www.w3.org/2000/svg">
 <path d="m600 0c-78.793 0-156.82 15.52-229.61 45.672s-138.94 74.348-194.65 130.07c-55.719 55.715-99.914 121.86-130.07 194.65s-45.672 150.82-45.672 229.61c0 159.13 63.215 311.74 175.74 424.26 112.52 112.52 265.13 175.73 424.27 175.73 159.13 0 311.74-63.215 424.26-175.74 112.52-112.52 175.74-265.13 175.74-424.26 0-159.13-63.215-311.74-175.73-424.27-112.52-112.52-265.13-175.74-424.26-175.74zm0 67.762c69.121 0 137.56 13.766 201.42 40.516 63.859 26.746 121.88 65.953 170.76 115.38s87.645 108.1 114.09 172.67c26.453 64.574 40.066 133.79 40.066 203.68 0 141.16-55.457 276.53-154.16 376.34-98.707 99.816-232.58 155.89-372.18 155.89-69.121 0-137.57-13.766-201.43-40.516-63.855-26.746-121.88-65.949-170.76-115.37-48.875-49.422-87.645-108.1-114.1-172.67-26.449-64.574-40.066-133.79-40.066-203.68 0-69.898 13.613-139.11 40.066-203.68 26.449-64.574 65.219-123.25 114.1-172.68 48.875-49.422 106.9-88.625 170.76-115.38 63.859-26.746 132.3-40.512 201.43-40.512z" fill="#ff7000"/>
 <path d="m604.54 355.15c-4.5352 0-7.5586-3.0234-7.5586-7.5586l0.003907-42.316c0-4.5352 3.0234-7.5586 7.5586-7.5586 4.5352 0 7.5586 3.0234 7.5586 7.5586v42.32c-0.003906 4.5352-3.7812 7.5547-7.5625 7.5547z" fill="#ff770b"/>
 <path d="m668.02 368.75c-0.75391 0-2.2656 0-3.0234-0.75391-3.7773-1.5117-5.2891-6.0469-3.7773-9.8242l16.625-39.297c1.5117-3.7773 6.0469-5.2891 9.8242-3.7773 3.7773 1.5117 5.2891 6.0469 3.7773 9.8242l-15.867 39.293c-1.5117 3.0234-4.5352 4.5352-7.5586 4.5352z" fill="#ff770b"/>
 <path d="m721.67 406.54c-2.2656 0-3.7773-0.75391-5.2891-2.2656-3.0234-3.0234-3.0234-7.5586 0-10.578l30.23-29.473c3.0234-3.0234 7.5586-3.0234 10.578 0 3.0234 3.0234 3.0234 7.5586 0 10.578l-30.23 29.473c-1.5117 1.5078-3.0234 2.2656-5.2891 2.2656z" fill="#ff770b"/>
 <path d="m756.43 461.71c-3.0234 0-6.0469-1.5117-6.8008-4.5352-1.5117-3.7773 0-8.3125 4.5352-9.8242l40.055-15.871c3.7773-1.5117 8.3125 0 9.8242 4.5352 1.5117 3.7773 0 8.3125-4.5352 9.8242l-40.055 15.871h-3.0234z" fill="#ff770b"/>
 <path d="m537.28 368.75c-3.0234 0-6.0469-1.5117-6.8008-4.5352l-16.625-39.297c-1.5117-3.7773 0-8.3125 3.7773-9.8242 3.7773-1.5117 8.3125 0 9.8242 3.7773l16.625 39.297c1.5117 3.7773 0 8.3125-3.7773 9.8242-0.75781 0.75781-1.5117 0.75781-3.0234 0.75781z" fill="#ff770b"/>
 <path d="m484.38 406.54c-2.2656 0-3.7773-0.75391-5.2891-2.2656l-30.23-29.473c-3.0234-3.0234-3.0234-7.5586 0-10.578 3.0234-3.0234 7.5586-3.0234 10.578 0l30.23 29.473c3.0234 3.0234 3.0234 7.5586 0 10.578-1.5117 1.5078-3.7773 2.2656-5.2891 2.2656z" fill="#ff770b"/>
 <path d="m448.86 461.71c-0.75391 0-1.5117 0-3.0234-0.75391l-40.055-15.871c-3.7773-1.5117-6.0469-6.0469-4.5352-9.8242 1.5117-3.7773 6.0469-6.0469 9.8242-4.5352l40.055 15.871c3.7773 1.5117 6.0469 6.0469 4.5352 9.8242-0.75391 3.0195-3.7773 5.2891-6.8008 5.2891z" fill="#ff770b"/>
 <path d="m733.76 528.96c0.75391-73.305-58.191-134.52-132.25-135.27h-2.2656c-34.762 0-68.016 13.602-92.953 37.785-25.695 24.938-40.055 58.191-40.809 93.707-0.75391 3.7773-3.0234 40.055 19.648 75.57 13.602 21.16 25.695 64.234 24.938 93.707v1.5117c0.75391 3.7773 3.7773 6.0469 7.5586 6.0469h159.46c3.7773 0 6.8008-3.0234 7.5586-6.0469h0.75391v-0.75391c0-29.473 12.09-70.281 25.695-90.688 24.938-35.516 23.426-71.789 22.668-75.566zm-209.33 157.19c-1.5117-27.961-12.09-70.281-27.207-93.707-21.16-32.496-18.137-65.746-18.137-66.504v-0.75391c0.75391-32.496 13.602-61.969 36.273-84.641 22.672-21.914 52.898-34.008 84.641-34.008h1.5117c66.504 0.75391 119.4 55.922 118.65 122.43v0.75391s3.0234 34.008-19.648 66.504c-15.113 21.914-26.449 61.969-27.961 90.688h-148.12z" fill="#ff770b"/>
 <path d="m606.05 856.95h-12.848c-39.297 0-71.039-31.738-71.039-71.039v-28.719c0-4.5352 3.0234-7.5586 7.5586-7.5586h139.81c4.5352 0 7.5586 3.0234 7.5586 7.5586v28.719c-0.75781 39.297-31.742 71.039-71.039 71.039zm-68.77-91.441v21.16c0 30.984 24.938 55.922 55.922 55.922h12.848c30.984 0 55.922-24.938 55.922-55.922v-21.16z" fill="#ff770b"/>
 <path d="m676.33 733.76h-157.95c-4.5352 0-7.5586-3.0234-7.5586-7.5586s3.0234-7.5586 7.5586-7.5586h157.95c4.5352 0 7.5586 3.0234 7.5586 7.5586 0 4.5391-3.0234 7.5586-7.5586 7.5586z" fill="#ff770b"/>
</svg>
