<?xml version="1.0" encoding="UTF-8"?>
<svg width="1200pt" height="1200pt" version="1.1" viewBox="0 0 1200 1200" xmlns="http://www.w3.org/2000/svg">
 <path d="m600 0c-78.793 0-156.82 15.52-229.61 45.672s-138.94 74.348-194.65 130.07c-55.719 55.715-99.914 121.86-130.07 194.65s-45.672 150.82-45.672 229.61c0 159.13 63.215 311.74 175.74 424.26 112.52 112.52 265.13 175.73 424.27 175.73 159.13 0 311.74-63.215 424.26-175.74 112.52-112.52 175.74-265.13 175.74-424.26 0-159.13-63.215-311.74-175.73-424.27-112.52-112.52-265.13-175.74-424.26-175.74zm0 67.762c69.121 0 137.56 13.766 201.42 40.516 63.859 26.746 121.88 65.953 170.76 115.38s87.645 108.1 114.09 172.67c26.453 64.574 40.066 133.79 40.066 203.68 0 141.16-55.457 276.53-154.16 376.34-98.707 99.816-232.58 155.89-372.18 155.89-69.121 0-137.57-13.766-201.43-40.516-63.855-26.746-121.88-65.949-170.76-115.37-48.875-49.422-87.645-108.1-114.1-172.67-26.449-64.574-40.066-133.79-40.066-203.68 0-69.898 13.613-139.11 40.066-203.68 26.449-64.574 65.219-123.25 114.1-172.68 48.875-49.422 106.9-88.625 170.76-115.38 63.859-26.746 132.3-40.512 201.43-40.512z" fill="#4c25e0"/>
 <path d="m652.9 437.52c6.2578 0 11.336 5.0781 11.336 11.336s-5.0781 11.336-11.336 11.336h-11.336v86.758c0 3.1602 0.79688 6.2578 2.3008 9.0312l84.043 154.13c2.8633 5.1953 4.3398 11.012 4.3398 16.945 0 19.57-15.852 35.426-35.426 35.426h-193.65c-19.57 0-35.426-15.852-35.426-35.426 0-5.9336 1.4766-11.75 4.3398-16.945l84.043-154.13c1.5039-2.7734 2.3008-5.875 2.3008-9.0312v-86.758h-11.336c-6.2578 0-11.336-5.0781-11.336-11.336s5.0781-11.336 11.336-11.336zm-160.91 283.42c-1.0352 1.8906-1.5664 3.9844-1.5664 6.1094 0 7.0547 5.6992 12.754 12.754 12.754h193.65c7.0547 0 12.754-5.6992 12.754-12.754 0-2.125-0.53125-4.2227-1.5664-6.1094l-35.039-64.266h-145.95zm89.121-260.75v86.758c0 6.9648-1.7422 13.785-5.0781 19.895l-36.633 67.156h121.21l-36.633-67.156c-3.3359-6.1094-5.0781-12.93-5.0781-19.895v-86.758z" fill="#4c25e0" fill-rule="evenodd"/>
</svg>
