<?xml version="1.0" encoding="UTF-8"?>
<svg width="1200pt" height="1200pt" version="1.1" viewBox="0 0 1200 1200" xmlns="http://www.w3.org/2000/svg">
 <path d="m60 0h1080c33.137 0 60 33.137 60 60v1080c0 33.137-26.863 60-60 60h-1080c-33.137 0-60-33.137-60-60v-1080c0-33.137 26.863-60 60-60z" fill="#fff"/>
 <path d="m476.32 937.36c-131.46 0-238.43-106.93-238.43-238.43 0-131.46 106.93-238.33 238.43-238.33 131.46 0 238.36 106.93 238.36 238.33 0.03125 131.46-106.9 238.43-238.36 238.43zm0-445.37c-114.11 0-206.94 92.828-206.94 206.91s92.828 206.88 206.94 206.88c114.11 0 206.88-92.797 206.88-206.88 0-114.08-92.797-206.91-206.88-206.91z" fill="#0a60d9"/>
 <path d="m723.75 937.36c-131.5 0-238.46-106.93-238.46-238.43 0-131.46 106.96-238.33 238.46-238.33 131.43 0 238.36 106.93 238.36 238.33 0 131.46-106.93 238.43-238.36 238.43zm0-445.37c-114.14 0-206.97 92.828-206.97 206.91s92.828 206.88 206.97 206.88c114.05 0 206.88-92.797 206.88-206.88 0-114.08-92.828-206.91-206.88-206.91z" fill="#0a60d9"/>
 <path d="m600 739.43c-131.46 0-238.43-106.93-238.43-238.39 0-131.46 106.93-238.36 238.43-238.36 131.46 0 238.36 106.93 238.36 238.36 0 131.43-106.9 238.39-238.36 238.39zm0-445.37c-114.11 0-206.94 92.797-206.94 206.94 0 114.08 92.828 206.84 206.94 206.84s206.88-92.766 206.88-206.84c0-114.14-92.766-206.94-206.88-206.94z" fill="#0a60d9"/>
</svg>
