<?xml version="1.0" encoding="UTF-8"?>
<svg width="1200pt" height="1200pt" version="1.1" viewBox="0 0 1200 1200" xmlns="http://www.w3.org/2000/svg">
 <path d="m600 0c-78.793 0-156.82 15.52-229.61 45.672s-138.94 74.348-194.65 130.07c-55.719 55.715-99.914 121.86-130.07 194.65s-45.672 150.82-45.672 229.61c0 159.13 63.215 311.74 175.74 424.26 112.52 112.52 265.13 175.73 424.27 175.73 159.13 0 311.74-63.215 424.26-175.74 112.52-112.52 175.74-265.13 175.74-424.26 0-159.13-63.215-311.74-175.73-424.27-112.52-112.52-265.13-175.74-424.26-175.74zm0 67.762c69.121 0 137.56 13.766 201.42 40.516 63.859 26.746 121.88 65.953 170.76 115.38s87.645 108.1 114.09 172.67c26.453 64.574 40.066 133.79 40.066 203.68 0 141.16-55.457 276.53-154.16 376.34-98.707 99.816-232.58 155.89-372.18 155.89-69.121 0-137.57-13.766-201.43-40.516-63.855-26.746-121.88-65.949-170.76-115.37-48.875-49.422-87.645-108.1-114.1-172.67-26.449-64.574-40.066-133.79-40.066-203.68 0-69.898 13.613-139.11 40.066-203.68 26.449-64.574 65.219-123.25 114.1-172.68 48.875-49.422 106.9-88.625 170.76-115.38 63.859-26.746 132.3-40.512 201.43-40.512z" fill="#4f0be4"/>
 <path d="m818.31 521.34c26.039-24.246 42.57-58.535 42.57-96.824 0-73.211-59.543-132.75-132.72-132.75s-132.75 59.543-132.75 132.75c0 38.289 16.562 72.578 42.57 96.824-11.996 5.9844-23.113 13.129-33.504 21.16 0-0.34766 0.09375-0.66016 0.09375-0.97656 0-73.18-59.574-132.72-132.75-132.72-73.18 0-132.72 59.543-132.72 132.72 0 38.32 16.562 72.613 42.602 96.855-68.078 33.754-112.35 103.22-112.35 180.9 0 20.844 3.1797 41.406 9.4453 61.246 5.3828 16.594 20.5 27.742 37.66 27.742h310.76c17.16 0 32.273-11.148 37.691-27.836 6.2344-19.711 9.4141-40.305 9.4141-61.148 0-9.5391-0.94531-18.895-2.2344-28.148h211.29c17.285 0 32.148-10.707 38.102-27.93 6.0469-20.34 9.1328-40.84 9.1328-60.867 0-77.617-44.273-147.11-112.32-180.96zm-191.38-96.824c0-55.828 45.406-101.27 101.27-101.27s101.23 45.406 101.23 101.27-45.406 101.23-101.23 101.23-101.27-45.406-101.27-101.23zm-256.31 116.98c0-55.828 45.406-101.23 101.23-101.23s101.27 45.406 101.27 101.23c0 17.004-4.5977 32.777-12.027 46.887-3.0859 4.4414-5.8242 8.8477-8.1562 13.195-18.484 24.844-47.801 41.188-81.051 41.188-55.797 0-101.23-45.406-101.23-101.27zm264.34 329.3c-1.1953 3.6836-4.1562 5.9531-7.7148 5.9531h-310.76c-3.5586 0-6.5195-2.2969-7.6836-5.8555-5.2578-16.656-7.9336-34.039-7.9336-51.641 0-71.668 44.648-134.99 111.41-159.77 18.012 9.1328 38.039 14.77 59.574 14.77 21.539 0 41.598-5.6367 59.574-14.77 66.754 24.781 111.41 88.105 111.41 159.77 0 17.633-2.6758 34.984-7.9023 51.547zm256.57-117.26c-1.3242 3.8711-4.3125 6.0781-8.125 6.0781h-218.24c-15.461-50.129-49.91-92.574-96.574-117.89 2.707-7.2734 5.8555-14.453 9.918-21.445 0.25-0.50391 0.56641-0.97656 0.82031-1.4805 3.3047-4.5977 6.0781-9.5391 8.7852-14.547 1.0391-1.0703 1.2266-1.1328 1.9219-2.4883 20.059-27.301 47.199-47.516 78.5-59.293 18.012 9.1641 38.07 14.801 59.605 14.801 21.539 0 41.598-5.6367 59.605-14.801 66.754 24.875 111.38 88.23 111.38 159.86 0 16.973-2.6445 34.418-7.6211 51.23z" fill="#4c25e0"/>
</svg>
